<?xml version="1.0" encoding="UTF-8"?> <svg xmlns="http://www.w3.org/2000/svg" width="113" height="56" viewBox="0 0 113 56" fill="none"> <path d="M23.2588 35.7646V24.4662H25.848V35.7646H23.2588ZM24.5534 22.3948C24.114 22.3948 23.7453 22.2457 23.4471 21.9476C23.1647 21.6494 23.0234 21.2807 23.0234 20.8413C23.0234 20.4019 23.1647 20.0331 23.4471 19.735C23.7453 19.4368 24.114 19.2877 24.5534 19.2877C25.0085 19.2877 25.3773 19.4368 25.6597 19.735C25.9422 20.0331 26.0834 20.4019 26.0834 20.8413C26.0834 21.2807 25.9422 21.6494 25.6597 21.9476C25.3773 22.2457 25.0085 22.3948 24.5534 22.3948Z" fill="#2C3039"></path> <path d="M32.4476 36C31.8199 36 31.2158 35.9215 30.6351 35.7646C30.0545 35.592 29.521 35.3566 29.0345 35.0584C28.5481 34.7446 28.1244 34.368 27.7635 33.9286L29.4111 32.2809C29.8035 32.736 30.2507 33.0812 30.7528 33.3166C31.2707 33.5363 31.8513 33.6461 32.4947 33.6461C33.0753 33.6461 33.5147 33.5598 33.8128 33.3872C34.111 33.2146 34.26 32.9635 34.26 32.634C34.26 32.2887 34.1188 32.022 33.8364 31.8337C33.5539 31.6454 33.1851 31.4884 32.7301 31.3629C32.2907 31.2217 31.8199 31.0804 31.3178 30.9392C30.8313 30.798 30.3605 30.6097 29.9055 30.3743C29.4661 30.1232 29.1052 29.7858 28.8227 29.3621C28.5402 28.9385 28.399 28.3892 28.399 27.7145C28.399 26.9926 28.5638 26.3728 28.8933 25.8549C29.2385 25.3371 29.7171 24.9369 30.3291 24.6545C30.9568 24.372 31.7022 24.2308 32.5653 24.2308C33.4754 24.2308 34.2757 24.3956 34.9662 24.7251C35.6723 25.0389 36.2608 25.5176 36.7316 26.1609L35.0839 27.8086C34.7543 27.4006 34.3777 27.0946 33.954 26.8906C33.5304 26.6866 33.0439 26.5846 32.4947 26.5846C31.9768 26.5846 31.5767 26.6631 31.2942 26.82C31.0118 26.9769 30.8705 27.2045 30.8705 27.5026C30.8705 27.8165 31.0118 28.0597 31.2942 28.2323C31.5767 28.4049 31.9376 28.554 32.377 28.6795C32.8321 28.8051 33.3028 28.9463 33.7893 29.1032C34.2914 29.2445 34.7622 29.4485 35.2016 29.7152C35.6566 29.9663 36.0254 30.3115 36.3079 30.7509C36.5903 31.1746 36.7316 31.7317 36.7316 32.4221C36.7316 33.5206 36.3471 34.3915 35.5782 35.0349C34.8093 35.6783 33.7657 36 32.4476 36Z" fill="#2C3039"></path> <path d="M46.6103 35.7646V29.2445C46.6103 28.4912 46.3671 27.8714 45.8806 27.3849C45.4099 26.8985 44.7979 26.6552 44.0446 26.6552C43.5425 26.6552 43.0952 26.7651 42.7029 26.9848C42.3106 27.2045 42.0046 27.5105 41.7849 27.9028C41.5653 28.2951 41.4554 28.7423 41.4554 29.2445L40.4433 28.6795C40.4433 27.8165 40.6316 27.0554 41.0082 26.3963C41.3848 25.7215 41.9026 25.1959 42.5617 24.8192C43.2365 24.4269 43.9897 24.2308 44.8214 24.2308C45.6688 24.2308 46.422 24.4191 47.0811 24.7957C47.7401 25.1723 48.258 25.698 48.6346 26.3728C49.0112 27.0318 49.1995 27.8008 49.1995 28.6795V35.7646H46.6103ZM38.8662 35.7646V18.817H41.4554V35.7646H38.8662Z" fill="#2C3039"></path> <path d="M57.88 36C57.0169 36 56.248 35.8195 55.5733 35.4586C54.8985 35.082 54.365 34.572 53.9726 33.9286C53.596 33.2852 53.4077 32.5555 53.4077 31.7395V28.4912C53.4077 27.6752 53.6039 26.9455 53.9962 26.3022C54.3885 25.6588 54.922 25.1566 55.5968 24.7957C56.2716 24.4191 57.0326 24.2308 57.88 24.2308C58.9 24.2308 59.818 24.4976 60.634 25.0311C61.4657 25.5489 62.1169 26.2551 62.5877 27.1495C63.0741 28.0283 63.3174 29.0248 63.3174 30.1389C63.3174 31.2374 63.0741 32.2338 62.5877 33.1283C62.1169 34.007 61.4657 34.7053 60.634 35.2232C59.818 35.741 58.9 36 57.88 36ZM57.4563 33.552C58.084 33.552 58.6332 33.4107 59.104 33.1283C59.5905 32.8301 59.9671 32.4221 60.2338 31.9043C60.5163 31.3864 60.6575 30.7901 60.6575 30.1154C60.6575 29.4406 60.5163 28.8443 60.2338 28.3265C59.9671 27.8086 59.5905 27.4085 59.104 27.126C58.6332 26.8279 58.084 26.6788 57.4563 26.6788C56.8286 26.6788 56.2716 26.8279 55.7851 27.126C55.2986 27.4085 54.922 27.8086 54.6553 28.3265C54.3885 28.8443 54.2551 29.4406 54.2551 30.1154C54.2551 30.7901 54.3885 31.3864 54.6553 31.9043C54.922 32.4221 55.2986 32.8301 55.7851 33.1283C56.2716 33.4107 56.8286 33.552 57.4563 33.552ZM51.8307 35.7646V18.817H54.4199V27.2437L53.9726 29.9741L54.4199 32.7281V35.7646H51.8307Z" fill="#2C3039"></path> <path d="M70.6632 36C69.5647 36 68.5682 35.741 67.6738 35.2232C66.7793 34.6896 66.0653 33.9757 65.5318 33.0812C65.014 32.1867 64.755 31.1903 64.755 30.0918C64.755 28.9934 65.014 28.0048 65.5318 27.126C66.0653 26.2472 66.7793 25.5489 67.6738 25.0311C68.5682 24.4976 69.5647 24.2308 70.6632 24.2308C71.7773 24.2308 72.7816 24.4897 73.6761 25.0076C74.5705 25.5254 75.2767 26.2315 75.7945 27.126C76.328 28.0048 76.5948 28.9934 76.5948 30.0918C76.5948 31.1903 76.328 32.1867 75.7945 33.0812C75.2767 33.9757 74.5705 34.6896 73.6761 35.2232C72.7816 35.741 71.7773 36 70.6632 36ZM70.6632 33.5049C71.3065 33.5049 71.8715 33.3637 72.3579 33.0812C72.8601 32.783 73.2445 32.375 73.5113 31.8572C73.7937 31.3394 73.935 30.7509 73.935 30.0918C73.935 29.4328 73.7937 28.8521 73.5113 28.35C73.2288 27.8478 72.8444 27.4555 72.3579 27.1731C71.8715 26.8749 71.3065 26.7259 70.6632 26.7259C70.0355 26.7259 69.4705 26.8749 68.9684 27.1731C68.4819 27.4555 68.0975 27.8478 67.815 28.35C67.5483 28.8521 67.4149 29.4328 67.4149 30.0918C67.4149 30.7509 67.5483 31.3394 67.815 31.8572C68.0975 32.375 68.4819 32.783 68.9684 33.0812C69.4705 33.3637 70.0355 33.5049 70.6632 33.5049Z" fill="#2C3039"></path> <path d="M83.4792 36C82.4592 36 81.5334 35.741 80.7017 35.2232C79.8857 34.7053 79.2345 34.007 78.748 33.1283C78.2772 32.2338 78.0419 31.2374 78.0419 30.1389C78.0419 29.0248 78.2772 28.0283 78.748 27.1495C79.2345 26.2551 79.8857 25.5489 80.7017 25.0311C81.5334 24.4976 82.4592 24.2308 83.4792 24.2308C84.3423 24.2308 85.1034 24.4191 85.7624 24.7957C86.4372 25.1566 86.9707 25.6588 87.363 26.3022C87.7553 26.9455 87.9515 27.6752 87.9515 28.4912V31.7395C87.9515 32.5555 87.7553 33.2852 87.363 33.9286C86.9864 34.572 86.4607 35.082 85.786 35.4586C85.1112 35.8195 84.3423 36 83.4792 36ZM83.9029 33.552C84.8601 33.552 85.629 33.2303 86.2097 32.5869C86.806 31.9435 87.1041 31.1197 87.1041 30.1154C87.1041 29.4406 86.9707 28.8443 86.704 28.3265C86.4372 27.8086 86.0606 27.4085 85.5741 27.126C85.1034 26.8279 84.5463 26.6788 83.9029 26.6788C83.2752 26.6788 82.7181 26.8279 82.2317 27.126C81.7609 27.4085 81.3843 27.8086 81.1018 28.3265C80.8351 28.8443 80.7017 29.4406 80.7017 30.1154C80.7017 30.7901 80.8351 31.3864 81.1018 31.9043C81.3843 32.4221 81.7609 32.8301 82.2317 33.1283C82.7181 33.4107 83.2752 33.552 83.9029 33.552ZM86.9393 35.7646V32.7281L87.3866 29.9741L86.9393 27.2437V24.4662H89.5286V35.7646H86.9393Z" fill="#2C3039"></path> <path d="M92.4021 35.7646V24.4662H94.9913V35.7646H92.4021ZM94.9913 29.4798L94.0968 29.0326C94.0968 27.6046 94.4107 26.4512 95.0384 25.5725C95.6817 24.678 96.6468 24.2308 97.9336 24.2308C98.4985 24.2308 99.0085 24.3328 99.4636 24.5368C99.9186 24.7408 100.342 25.0703 100.735 25.5254L99.0399 27.2672C98.8359 27.0475 98.6083 26.8906 98.3573 26.7965C98.1062 26.7023 97.8159 26.6552 97.4864 26.6552C96.7645 26.6552 96.1682 26.8828 95.6974 27.3378C95.2267 27.7929 94.9913 28.5069 94.9913 29.4798Z" fill="#2C3039"></path> <path d="M106.374 36C105.354 36 104.428 35.741 103.596 35.2232C102.78 34.7053 102.129 34.007 101.643 33.1283C101.172 32.2338 100.937 31.2374 100.937 30.1389C100.937 29.0248 101.172 28.0283 101.643 27.1495C102.129 26.2551 102.78 25.5489 103.596 25.0311C104.428 24.4976 105.354 24.2308 106.374 24.2308C107.237 24.2308 107.998 24.4191 108.657 24.7957C109.332 25.1566 109.865 25.6588 110.258 26.3022C110.65 26.9455 110.846 27.6752 110.846 28.4912V31.7395C110.846 32.5555 110.65 33.2852 110.258 33.9286C109.881 34.572 109.355 35.082 108.681 35.4586C108.006 35.8195 107.237 36 106.374 36ZM106.798 33.552C107.441 33.552 107.998 33.4107 108.469 33.1283C108.955 32.8301 109.332 32.4221 109.599 31.9043C109.865 31.3864 109.999 30.7901 109.999 30.1154C109.999 29.4406 109.865 28.8443 109.599 28.3265C109.332 27.8086 108.955 27.4085 108.469 27.126C107.998 26.8279 107.441 26.6788 106.798 26.6788C106.17 26.6788 105.613 26.8279 105.126 27.126C104.656 27.4085 104.279 27.8086 103.997 28.3265C103.73 28.8443 103.596 29.4406 103.596 30.1154C103.596 30.7901 103.73 31.3864 103.997 31.9043C104.279 32.4221 104.656 32.8301 105.126 33.1283C105.613 33.4107 106.17 33.552 106.798 33.552ZM112.423 35.7646H109.834V32.7281L110.281 29.9741L109.834 27.2437V18.817H112.423V35.7646Z" fill="#2C3039"></path> <path d="M16.1809 23.002C15.6425 23.9492 14.9788 24.8197 14.2082 25.5898C14.0458 25.7789 13.8259 25.9097 13.5825 25.9622C13.3391 26.0145 13.0856 25.9856 12.8606 25.88C12.7399 25.8111 12.6952 25.6589 12.7592 25.535L15.3342 20.6231L15.3505 20.5951C15.5915 20.1657 15.5642 19.6971 15.2935 19.5407C15.0229 19.3843 14.6009 19.6028 14.3533 20.0257L14.3301 20.0342L11.5332 24.4733C11.4061 24.7216 11.1087 24.8292 10.8535 24.7192L10.4675 24.4989C10.2443 24.3306 10.1919 24.0168 10.3477 23.7835L12.7786 19.1432L12.7949 19.1153C13.0358 18.6858 13.0086 18.2173 12.7379 18.0609C12.4672 17.9045 12.0493 18.1215 11.8001 18.5407L11.7768 18.5491L8.82649 23.2458C8.75302 23.3636 8.59953 23.4014 8.47997 23.3314C8.27467 23.1902 8.12148 22.9852 8.04355 22.7477C7.96571 22.5105 7.96779 22.2538 8.0493 22.0174C8.32582 20.9642 8.74274 19.9528 9.28895 19.0105C10.946 16.1289 12.338 13.7075 14.7582 14.1482C15.2014 14.2293 15.6471 14.0148 15.8619 13.6172L18.5117 8.19904C18.6536 7.95208 18.8895 7.77365 19.1652 7.70452C19.4408 7.63539 19.7324 7.6817 19.9724 7.83295L20.4692 8.11846C20.7137 8.25894 20.8911 8.49227 20.9609 8.76605C21.0307 9.03984 20.9872 9.33044 20.8404 9.57242L17.5274 14.6076C17.2915 14.993 17.3296 15.4858 17.6222 15.8283C19.2247 17.6972 17.8343 20.122 16.1809 23.002Z" fill="#2C3039"></path> <path d="M13.8224 33.2292C17.2475 32.3114 19.3612 28.6592 17.2026 25.846V25.846C15.8955 24.1427 14.2658 22.7134 12.4064 21.6399C10.547 20.5664 8.49433 19.8696 6.36563 19.5893V19.5893C2.85007 19.1265 0.743982 22.7831 1.66173 26.2082L2.67867 30.0035C3.53632 33.2043 6.82634 35.1038 10.0271 34.2461L13.8224 33.2292Z" fill="#B2AEF8"></path> <path fill-rule="evenodd" clip-rule="evenodd" d="M16.7207 29.8484C16.305 28.976 15.7981 28.1474 15.207 27.3771C14.1011 25.9358 12.722 24.7264 11.1487 23.818C9.57535 22.9097 7.83849 22.3201 6.03729 22.083C5.07461 21.9562 4.10362 21.9315 3.14028 22.0077L6.01016 32.7182L16.7207 29.8484ZM19.3534 29.5829C19.7935 30.6536 19.1176 31.8102 17.9994 32.1098L5.44636 35.4734C4.77545 35.6531 4.08582 35.255 3.90605 34.5841L0.542482 22.0311C0.242862 20.9129 0.906525 19.7492 2.05385 19.595C3.48152 19.4031 4.93136 19.4003 6.36561 19.5892C8.4943 19.8694 10.5469 20.5662 12.4064 21.6397C14.2658 22.7132 15.8955 24.1425 17.2026 25.8459C18.0832 26.9936 18.8057 28.2505 19.3534 29.5829Z" fill="#2C3039"></path> </svg> 